<mxfile host="app.diagrams.net" modified="2023-04-12T16:04:55.872Z" agent="Mozilla/5.0 (Windows NT 10.0; Win64; x64) AppleWebKit/537.36 (KHTML, like Gecko) Chrome/111.0.0.0 Safari/537.36" etag="E5R-cpXq2hrEt6cA_EQS" version="21.1.7" type="github">
  <diagram name="Página-1" id="GVrCEBP-sC31mfDfFol-">
    <mxGraphModel dx="1195" dy="637" grid="1" gridSize="10" guides="1" tooltips="1" connect="1" arrows="1" fold="1" page="1" pageScale="1" pageWidth="827" pageHeight="1169" math="0" shadow="0">
      <root>
        <mxCell id="0" />
        <mxCell id="1" parent="0" />
        <mxCell id="yPgfIwb3IiQU2in2HysK-1" value="" style="ellipse;whiteSpace=wrap;html=1;aspect=fixed;fillColor=#1C1C1C;" vertex="1" parent="1">
          <mxGeometry x="20" y="77.5" width="20" height="20" as="geometry" />
        </mxCell>
        <mxCell id="yPgfIwb3IiQU2in2HysK-2" value="" style="endArrow=classic;html=1;rounded=0;exitX=1;exitY=0.5;exitDx=0;exitDy=0;entryX=0;entryY=0.5;entryDx=0;entryDy=0;" edge="1" parent="1" source="yPgfIwb3IiQU2in2HysK-1" target="yPgfIwb3IiQU2in2HysK-5">
          <mxGeometry width="50" height="50" relative="1" as="geometry">
            <mxPoint x="240" y="270" as="sourcePoint" />
            <mxPoint x="90" y="70" as="targetPoint" />
          </mxGeometry>
        </mxCell>
        <mxCell id="yPgfIwb3IiQU2in2HysK-4" value="Iniciar Cadastro" style="text;strokeColor=none;align=center;fillColor=none;html=1;verticalAlign=middle;whiteSpace=wrap;rounded=0;" vertex="1" parent="1">
          <mxGeometry y="30" width="70" height="30" as="geometry" />
        </mxCell>
        <mxCell id="yPgfIwb3IiQU2in2HysK-5" value="&lt;font style=&quot;font-size: 11px;&quot;&gt;Informará os dados:&lt;br&gt;RA&lt;br&gt;E-mail&lt;br&gt;Senha&lt;br&gt;Confirmação de senha&lt;/font&gt;" style="rounded=1;whiteSpace=wrap;html=1;" vertex="1" parent="1">
          <mxGeometry x="90" y="40" width="170" height="95" as="geometry" />
        </mxCell>
        <mxCell id="yPgfIwb3IiQU2in2HysK-7" value="" style="endArrow=classic;html=1;rounded=0;exitX=1;exitY=0.5;exitDx=0;exitDy=0;" edge="1" parent="1" source="yPgfIwb3IiQU2in2HysK-5">
          <mxGeometry width="50" height="50" relative="1" as="geometry">
            <mxPoint x="50" y="98" as="sourcePoint" />
            <mxPoint x="320" y="88" as="targetPoint" />
            <Array as="points" />
          </mxGeometry>
        </mxCell>
        <mxCell id="yPgfIwb3IiQU2in2HysK-8" value="" style="rhombus;whiteSpace=wrap;html=1;" vertex="1" parent="1">
          <mxGeometry x="320" y="61.25" width="50" height="52.5" as="geometry" />
        </mxCell>
        <mxCell id="yPgfIwb3IiQU2in2HysK-9" value="&lt;font style=&quot;font-size: 10px;&quot;&gt;Preencheu todos os dados?&lt;/font&gt;" style="text;strokeColor=none;align=center;fillColor=none;html=1;verticalAlign=middle;whiteSpace=wrap;rounded=0;" vertex="1" parent="1">
          <mxGeometry x="267.5" y="31.25" width="155" height="30" as="geometry" />
        </mxCell>
        <mxCell id="yPgfIwb3IiQU2in2HysK-10" value="Sim" style="endArrow=classic;html=1;rounded=0;exitX=1;exitY=0.5;exitDx=0;exitDy=0;" edge="1" parent="1">
          <mxGeometry width="50" height="50" relative="1" as="geometry">
            <mxPoint x="370" y="87.16" as="sourcePoint" />
            <mxPoint x="440" y="87" as="targetPoint" />
            <Array as="points">
              <mxPoint x="400" y="87" />
            </Array>
          </mxGeometry>
        </mxCell>
        <mxCell id="yPgfIwb3IiQU2in2HysK-11" value="Não" style="endArrow=classic;html=1;rounded=0;exitX=0.5;exitY=1;exitDx=0;exitDy=0;entryX=0.5;entryY=1;entryDx=0;entryDy=0;" edge="1" parent="1" source="yPgfIwb3IiQU2in2HysK-8" target="yPgfIwb3IiQU2in2HysK-5">
          <mxGeometry x="0.0813" width="50" height="50" relative="1" as="geometry">
            <mxPoint x="270" y="98" as="sourcePoint" />
            <mxPoint x="190" y="170" as="targetPoint" />
            <Array as="points">
              <mxPoint x="345" y="170" />
              <mxPoint x="240" y="170" />
              <mxPoint x="175" y="170" />
            </Array>
            <mxPoint as="offset" />
          </mxGeometry>
        </mxCell>
        <mxCell id="yPgfIwb3IiQU2in2HysK-12" value="Informar código recebido via e-mail" style="rounded=1;whiteSpace=wrap;html=1;fontSize=11;" vertex="1" parent="1">
          <mxGeometry x="440" y="57.5" width="120" height="60" as="geometry" />
        </mxCell>
        <mxCell id="yPgfIwb3IiQU2in2HysK-13" value="" style="endArrow=classic;html=1;rounded=0;exitX=1;exitY=0.5;exitDx=0;exitDy=0;" edge="1" parent="1" source="yPgfIwb3IiQU2in2HysK-12">
          <mxGeometry width="50" height="50" relative="1" as="geometry">
            <mxPoint x="270" y="98" as="sourcePoint" />
            <mxPoint x="640" y="88" as="targetPoint" />
            <Array as="points" />
          </mxGeometry>
        </mxCell>
        <mxCell id="yPgfIwb3IiQU2in2HysK-14" value="" style="rhombus;whiteSpace=wrap;html=1;" vertex="1" parent="1">
          <mxGeometry x="640" y="61.25" width="50" height="52.5" as="geometry" />
        </mxCell>
        <mxCell id="yPgfIwb3IiQU2in2HysK-15" value="&lt;font style=&quot;font-size: 10px;&quot;&gt;Informou código válido?&lt;/font&gt;" style="text;strokeColor=none;align=center;fillColor=none;html=1;verticalAlign=middle;whiteSpace=wrap;rounded=0;" vertex="1" parent="1">
          <mxGeometry x="587.5" y="31.25" width="155" height="30" as="geometry" />
        </mxCell>
        <mxCell id="yPgfIwb3IiQU2in2HysK-17" value="Sim" style="endArrow=classic;html=1;rounded=0;exitX=1;exitY=0.5;exitDx=0;exitDy=0;" edge="1" parent="1" source="yPgfIwb3IiQU2in2HysK-14">
          <mxGeometry width="50" height="50" relative="1" as="geometry">
            <mxPoint x="570" y="98" as="sourcePoint" />
            <mxPoint x="760" y="88" as="targetPoint" />
            <Array as="points" />
          </mxGeometry>
        </mxCell>
        <mxCell id="yPgfIwb3IiQU2in2HysK-18" value="Não" style="endArrow=classic;html=1;rounded=0;exitX=0.5;exitY=1;exitDx=0;exitDy=0;" edge="1" parent="1" source="yPgfIwb3IiQU2in2HysK-14">
          <mxGeometry x="0.0813" width="50" height="50" relative="1" as="geometry">
            <mxPoint x="670" y="113.75" as="sourcePoint" />
            <mxPoint x="665" y="230" as="targetPoint" />
            <Array as="points">
              <mxPoint x="665" y="170" />
              <mxPoint x="665" y="190" />
            </Array>
            <mxPoint as="offset" />
          </mxGeometry>
        </mxCell>
        <mxCell id="yPgfIwb3IiQU2in2HysK-19" value="Solicitar código&lt;br&gt;novamente" style="rounded=1;whiteSpace=wrap;html=1;fontSize=11;" vertex="1" parent="1">
          <mxGeometry x="605" y="230" width="120" height="60" as="geometry" />
        </mxCell>
        <mxCell id="yPgfIwb3IiQU2in2HysK-20" value="" style="endArrow=none;html=1;rounded=0;entryX=0;entryY=0.5;entryDx=0;entryDy=0;exitX=0.5;exitY=1;exitDx=0;exitDy=0;" edge="1" parent="1" source="yPgfIwb3IiQU2in2HysK-12" target="yPgfIwb3IiQU2in2HysK-19">
          <mxGeometry width="50" height="50" relative="1" as="geometry">
            <mxPoint x="480" y="260" as="sourcePoint" />
            <mxPoint x="460" y="150" as="targetPoint" />
            <Array as="points">
              <mxPoint x="500" y="260" />
            </Array>
          </mxGeometry>
        </mxCell>
        <mxCell id="yPgfIwb3IiQU2in2HysK-21" value="" style="ellipse;whiteSpace=wrap;html=1;aspect=fixed;" vertex="1" parent="1">
          <mxGeometry x="760" y="71.25" width="32.5" height="32.5" as="geometry" />
        </mxCell>
        <mxCell id="yPgfIwb3IiQU2in2HysK-22" value="" style="ellipse;whiteSpace=wrap;html=1;aspect=fixed;fillColor=#000000;labelBackgroundColor=#000000;" vertex="1" parent="1">
          <mxGeometry x="763.75" y="75" width="25" height="25" as="geometry" />
        </mxCell>
        <mxCell id="yPgfIwb3IiQU2in2HysK-39" value="" style="ellipse;whiteSpace=wrap;html=1;aspect=fixed;fillColor=#1C1C1C;" vertex="1" parent="1">
          <mxGeometry x="20" y="386.25" width="20" height="20" as="geometry" />
        </mxCell>
        <mxCell id="yPgfIwb3IiQU2in2HysK-40" value="" style="endArrow=classic;html=1;rounded=0;exitX=1;exitY=0.5;exitDx=0;exitDy=0;entryX=0;entryY=0.5;entryDx=0;entryDy=0;" edge="1" parent="1" source="yPgfIwb3IiQU2in2HysK-39" target="yPgfIwb3IiQU2in2HysK-41">
          <mxGeometry width="50" height="50" relative="1" as="geometry">
            <mxPoint x="240" y="578.75" as="sourcePoint" />
            <mxPoint x="90" y="378.75" as="targetPoint" />
          </mxGeometry>
        </mxCell>
        <mxCell id="yPgfIwb3IiQU2in2HysK-41" value="&lt;font style=&quot;font-size: 11px;&quot;&gt;Informará RA/ou e-mail e senha&lt;br&gt;&lt;/font&gt;" style="rounded=1;whiteSpace=wrap;html=1;" vertex="1" parent="1">
          <mxGeometry x="90" y="360.63" width="150" height="71.25" as="geometry" />
        </mxCell>
        <mxCell id="yPgfIwb3IiQU2in2HysK-42" value="" style="endArrow=classic;html=1;rounded=0;exitX=1;exitY=0.5;exitDx=0;exitDy=0;" edge="1" parent="1" source="yPgfIwb3IiQU2in2HysK-41">
          <mxGeometry width="50" height="50" relative="1" as="geometry">
            <mxPoint x="50" y="406.75" as="sourcePoint" />
            <mxPoint x="320" y="396.75" as="targetPoint" />
            <Array as="points" />
          </mxGeometry>
        </mxCell>
        <mxCell id="yPgfIwb3IiQU2in2HysK-43" value="" style="rhombus;whiteSpace=wrap;html=1;" vertex="1" parent="1">
          <mxGeometry x="320" y="370" width="50" height="52.5" as="geometry" />
        </mxCell>
        <mxCell id="yPgfIwb3IiQU2in2HysK-44" value="&lt;font style=&quot;font-size: 10px;&quot;&gt;E-mail e senha corretos conforme cadastro?&lt;/font&gt;" style="text;strokeColor=none;align=center;fillColor=none;html=1;verticalAlign=middle;whiteSpace=wrap;rounded=0;" vertex="1" parent="1">
          <mxGeometry x="267.5" y="336.25" width="155" height="30" as="geometry" />
        </mxCell>
        <mxCell id="yPgfIwb3IiQU2in2HysK-45" value="Sim" style="endArrow=classic;html=1;rounded=0;exitX=1;exitY=0.5;exitDx=0;exitDy=0;" edge="1" parent="1">
          <mxGeometry width="50" height="50" relative="1" as="geometry">
            <mxPoint x="370" y="395.90999999999997" as="sourcePoint" />
            <mxPoint x="440" y="395.75" as="targetPoint" />
            <Array as="points">
              <mxPoint x="400" y="395.75" />
            </Array>
          </mxGeometry>
        </mxCell>
        <mxCell id="yPgfIwb3IiQU2in2HysK-46" value="Não" style="endArrow=classic;html=1;rounded=0;exitX=0.5;exitY=1;exitDx=0;exitDy=0;" edge="1" parent="1" source="yPgfIwb3IiQU2in2HysK-43">
          <mxGeometry x="-0.0323" width="50" height="50" relative="1" as="geometry">
            <mxPoint x="270" y="406.75" as="sourcePoint" />
            <mxPoint x="345" y="500" as="targetPoint" />
            <Array as="points" />
            <mxPoint as="offset" />
          </mxGeometry>
        </mxCell>
        <mxCell id="yPgfIwb3IiQU2in2HysK-47" value="Entra no&lt;br&gt;sistema" style="rounded=1;whiteSpace=wrap;html=1;fontSize=11;" vertex="1" parent="1">
          <mxGeometry x="440" y="366.25" width="120" height="60" as="geometry" />
        </mxCell>
        <mxCell id="yPgfIwb3IiQU2in2HysK-48" value="" style="endArrow=classic;html=1;rounded=0;exitX=1;exitY=0.5;exitDx=0;exitDy=0;" edge="1" parent="1" source="yPgfIwb3IiQU2in2HysK-47">
          <mxGeometry width="50" height="50" relative="1" as="geometry">
            <mxPoint x="270" y="406.75" as="sourcePoint" />
            <mxPoint x="640" y="396.75" as="targetPoint" />
            <Array as="points" />
          </mxGeometry>
        </mxCell>
        <mxCell id="yPgfIwb3IiQU2in2HysK-55" value="" style="ellipse;whiteSpace=wrap;html=1;aspect=fixed;" vertex="1" parent="1">
          <mxGeometry x="640" y="380.01" width="32.5" height="32.5" as="geometry" />
        </mxCell>
        <mxCell id="yPgfIwb3IiQU2in2HysK-56" value="" style="ellipse;whiteSpace=wrap;html=1;aspect=fixed;fillColor=#000000;labelBackgroundColor=#000000;" vertex="1" parent="1">
          <mxGeometry x="643.75" y="383.76" width="25" height="25" as="geometry" />
        </mxCell>
        <mxCell id="yPgfIwb3IiQU2in2HysK-57" value="&lt;font style=&quot;font-size: 11px;&quot;&gt;Entrar no Sistema&lt;br&gt;(Login)&lt;/font&gt;" style="text;strokeColor=none;align=center;fillColor=none;html=1;verticalAlign=middle;whiteSpace=wrap;rounded=0;" vertex="1" parent="1">
          <mxGeometry x="5" y="340" width="60" height="30" as="geometry" />
        </mxCell>
        <mxCell id="yPgfIwb3IiQU2in2HysK-58" value="&lt;font style=&quot;font-size: 11px;&quot;&gt;Solicitar recuperação&lt;br&gt;da senha&lt;/font&gt;" style="rounded=1;whiteSpace=wrap;html=1;" vertex="1" parent="1">
          <mxGeometry x="285" y="500" width="120" height="60" as="geometry" />
        </mxCell>
        <mxCell id="yPgfIwb3IiQU2in2HysK-59" value="" style="endArrow=classic;html=1;rounded=0;exitX=1;exitY=0.5;exitDx=0;exitDy=0;" edge="1" parent="1" source="yPgfIwb3IiQU2in2HysK-58">
          <mxGeometry width="50" height="50" relative="1" as="geometry">
            <mxPoint x="250" y="406" as="sourcePoint" />
            <mxPoint x="470" y="530" as="targetPoint" />
            <Array as="points" />
          </mxGeometry>
        </mxCell>
        <mxCell id="yPgfIwb3IiQU2in2HysK-60" value="Informar código recebido via e-mail" style="rounded=1;whiteSpace=wrap;html=1;fontSize=11;" vertex="1" parent="1">
          <mxGeometry x="467.5" y="500" width="120" height="60" as="geometry" />
        </mxCell>
        <mxCell id="yPgfIwb3IiQU2in2HysK-61" value="" style="endArrow=classic;html=1;rounded=0;exitX=1;exitY=0.5;exitDx=0;exitDy=0;" edge="1" parent="1" source="yPgfIwb3IiQU2in2HysK-60">
          <mxGeometry width="50" height="50" relative="1" as="geometry">
            <mxPoint x="570" y="98" as="sourcePoint" />
            <mxPoint x="640" y="530" as="targetPoint" />
            <Array as="points" />
          </mxGeometry>
        </mxCell>
        <mxCell id="yPgfIwb3IiQU2in2HysK-62" value="" style="rhombus;whiteSpace=wrap;html=1;" vertex="1" parent="1">
          <mxGeometry x="640" y="503.75" width="50" height="52.5" as="geometry" />
        </mxCell>
        <mxCell id="yPgfIwb3IiQU2in2HysK-63" value="&lt;font style=&quot;font-size: 10px;&quot;&gt;Informou código válido?&lt;/font&gt;" style="text;strokeColor=none;align=center;fillColor=none;html=1;verticalAlign=middle;whiteSpace=wrap;rounded=0;" vertex="1" parent="1">
          <mxGeometry x="587.5" y="470" width="155" height="30" as="geometry" />
        </mxCell>
        <mxCell id="yPgfIwb3IiQU2in2HysK-64" value="Não" style="endArrow=classic;html=1;rounded=0;exitX=0.5;exitY=1;exitDx=0;exitDy=0;" edge="1" parent="1" source="yPgfIwb3IiQU2in2HysK-62">
          <mxGeometry x="-0.4933" width="50" height="50" relative="1" as="geometry">
            <mxPoint x="675" y="124" as="sourcePoint" />
            <mxPoint x="665" y="610" as="targetPoint" />
            <Array as="points" />
            <mxPoint as="offset" />
          </mxGeometry>
        </mxCell>
        <mxCell id="yPgfIwb3IiQU2in2HysK-68" value="Solicitar código&lt;br&gt;novamente" style="rounded=1;whiteSpace=wrap;html=1;fontSize=11;" vertex="1" parent="1">
          <mxGeometry x="605" y="610" width="120" height="60" as="geometry" />
        </mxCell>
        <mxCell id="yPgfIwb3IiQU2in2HysK-69" value="" style="endArrow=none;html=1;rounded=0;entryX=0;entryY=0.5;entryDx=0;entryDy=0;exitX=0.5;exitY=1;exitDx=0;exitDy=0;" edge="1" parent="1" source="yPgfIwb3IiQU2in2HysK-60" target="yPgfIwb3IiQU2in2HysK-68">
          <mxGeometry width="50" height="50" relative="1" as="geometry">
            <mxPoint x="510" y="128" as="sourcePoint" />
            <mxPoint x="615" y="270" as="targetPoint" />
            <Array as="points">
              <mxPoint x="528" y="640" />
            </Array>
          </mxGeometry>
        </mxCell>
        <mxCell id="yPgfIwb3IiQU2in2HysK-70" value="Sim" style="endArrow=classic;html=1;rounded=0;exitX=1;exitY=0.5;exitDx=0;exitDy=0;entryX=1;entryY=0.5;entryDx=0;entryDy=0;" edge="1" parent="1" source="yPgfIwb3IiQU2in2HysK-62" target="yPgfIwb3IiQU2in2HysK-73">
          <mxGeometry width="50" height="50" relative="1" as="geometry">
            <mxPoint x="700" y="98" as="sourcePoint" />
            <mxPoint x="780" y="730" as="targetPoint" />
            <Array as="points">
              <mxPoint x="780" y="530" />
              <mxPoint x="780" y="730" />
            </Array>
          </mxGeometry>
        </mxCell>
        <mxCell id="yPgfIwb3IiQU2in2HysK-73" value="Redefinir senha" style="rounded=1;whiteSpace=wrap;html=1;fontSize=11;" vertex="1" parent="1">
          <mxGeometry x="605" y="700" width="120" height="60" as="geometry" />
        </mxCell>
        <mxCell id="yPgfIwb3IiQU2in2HysK-74" value="" style="endArrow=none;html=1;rounded=0;entryX=0;entryY=0.5;entryDx=0;entryDy=0;exitX=0.456;exitY=1.016;exitDx=0;exitDy=0;exitPerimeter=0;" edge="1" parent="1" source="yPgfIwb3IiQU2in2HysK-41" target="yPgfIwb3IiQU2in2HysK-73">
          <mxGeometry width="50" height="50" relative="1" as="geometry">
            <mxPoint x="538" y="570" as="sourcePoint" />
            <mxPoint x="615" y="650" as="targetPoint" />
            <Array as="points">
              <mxPoint x="158" y="730" />
            </Array>
          </mxGeometry>
        </mxCell>
      </root>
    </mxGraphModel>
  </diagram>
</mxfile>
